<svg xmlns="http://www.w3.org/2000/svg" width="98" height="98" viewBox="0 0 98 98">
  <g id="Group_4305" data-name="Group 4305" transform="translate(-1088 -716)">
    <rect id="Rectangle_15" data-name="Rectangle 15" width="98" height="98" rx="49" transform="translate(1088 716)" fill="#15b186"/>
    <g id="coronavirus" transform="translate(1108.075 730.788)">
      <path id="Path_40" data-name="Path 40" d="M92.985,147.67a2.654,2.654,0,0,0-3.021,1.744l-3.023-1.32c.006-.207.009-.411.009-.609a21.115,21.115,0,0,0-.662-5.252l1.356-.92a3.021,3.021,0,0,0,4.807-3.374l-.638-1.713a3.039,3.039,0,0,0-3.79-1.864,3.027,3.027,0,0,0-2.082,2.867l-1.538.215c-.211-.386-.441-.778-.687-1.168a.863.863,0,0,0-1.461.921c.29.46.556.922.79,1.371a1.207,1.207,0,0,0,1.233.637l2.774-.387a.863.863,0,0,0,.693-1.147A1.294,1.294,0,0,1,88.562,136a1.333,1.333,0,0,1,1.633.827l.638,1.713a1.34,1.34,0,0,1-.675,1.69,1.3,1.3,0,0,1-1.624-.513.863.863,0,0,0-1.223-.267l-2.3,1.561a1.2,1.2,0,0,0-.484,1.317,19.365,19.365,0,0,1,.7,5.155c0,.286-.007.586-.021.89a1.21,1.21,0,0,0,.72,1.159l4.314,1.884a.863.863,0,0,0,1.193-.625l.137-.7a.927.927,0,0,1,1.818.357l-.707,3.605a.927.927,0,0,1-1.132.721.963.963,0,0,1-.676-1.127l.019-.1A.864.864,0,0,0,90,152.526l-4.666.213a1.21,1.21,0,0,0-1.087.825,19.262,19.262,0,0,1-1.706,3.748,1.2,1.2,0,0,0,.114,1.388l2.064,2.452a.863.863,0,0,0,1.256.07,1.291,1.291,0,0,1,1.914,1.721l-.6.782a1.335,1.335,0,0,1-1.789.322,1.3,1.3,0,0,1-.492-1.478.863.863,0,0,0-.471-1.066L81.564,160.2a1.2,1.2,0,0,0-1.374.293,19.387,19.387,0,0,1-4.551,3.687,1.21,1.21,0,0,0-.582,1.233l.761,4.642a.863.863,0,0,0,1.173.662l.659-.264a.927.927,0,0,1,1.221.559.963.963,0,0,1-.579,1.18l-3.364,1.346a.927.927,0,0,1-1.221-.559.963.963,0,0,1,.579-1.18l.091-.036a.863.863,0,0,0,.382-1.3l-2.714-3.8a1.211,1.211,0,0,0-1.282-.465,19.435,19.435,0,0,1-8.74.227,1.212,1.212,0,0,0-1.256.531l-2.717,4.261a.864.864,0,0,0,.432,1.275l.1.035a1.314,1.314,0,0,1,.785,1.685.861.861,0,0,0-.052.3.673.673,0,0,1-1.018.713L54.955,174a1.321,1.321,0,0,1-.793-1.661,1.273,1.273,0,0,1,.668-.734,1.405,1.405,0,0,1,1.079-.055l.076.028a.863.863,0,0,0,1.154-.716l.553-4.993a1.21,1.21,0,0,0-.645-1.2,19.329,19.329,0,0,1-5.368-4.1,1.207,1.207,0,0,0-1.342-.3l-4.072,1.67a.863.863,0,0,0-.434,1.206,1.049,1.049,0,0,1-.352,1.378A1.091,1.091,0,0,1,44,164.194l-1.043-1.5a1.084,1.084,0,0,1,.181-1.472,1.054,1.054,0,0,1,1.5.191.863.863,0,0,0,1.335.051l2.868-3.242a1.206,1.206,0,0,0,.15-1.381,19.335,19.335,0,0,1-.852-1.741.864.864,0,0,0-1.587.682c.231.537.483,1.064.753,1.572l-2.054,2.322a2.787,2.787,0,0,0-3.177.19,2.812,2.812,0,0,0-.53,3.813l1.043,1.5a2.828,2.828,0,0,0,3.844.782,2.768,2.768,0,0,0,1.227-2.73l3-1.231a21.045,21.045,0,0,0,5.279,4.029l-.411,3.709a3.143,3.143,0,0,0-1.44.3,2.987,2.987,0,0,0-1.557,1.732,3.056,3.056,0,0,0,1.835,3.845l3.337,1.217a2.909,2.909,0,0,0,1,.182,2.3,2.3,0,0,0,1.333-.406,2.477,2.477,0,0,0,1-1.96A3.047,3.047,0,0,0,60,171.357l2.027-3.18a21.246,21.246,0,0,0,8.816-.229l1.97,2.761a2.648,2.648,0,0,0,2.752,4.431l3.364-1.346a2.676,2.676,0,0,0,1.569-3.349A2.633,2.633,0,0,0,79.1,168.9a2.667,2.667,0,0,0-1.744-.161l-.534-3.253a21.1,21.1,0,0,0,4.392-3.555l2.009.882a3.017,3.017,0,0,0,5.441,1.965l.6-.782a3.02,3.02,0,0,0-3.722-4.549l-1.325-1.574a21.01,21.01,0,0,0,1.556-3.423l3.387-.154a2.648,2.648,0,0,0,5.215.1l.707-3.605a2.656,2.656,0,0,0-2.093-3.115Z" transform="translate(-36.304 -114.4)" fill="#fff"/>
      <path id="Path_41" data-name="Path 41" d="M5.563,35.6l3.236.747c.07.45.158.907.26,1.363a.863.863,0,0,0,1.685-.378c-.119-.53-.216-1.061-.287-1.578a1.21,1.21,0,0,0-.921-1.009L4.953,33.688a.863.863,0,0,0-1.058.834l0,.537a1.1,1.1,0,0,1-1.1,1.09,1.064,1.064,0,0,1-1.064-1.074l.03-3.33a1.161,1.161,0,0,1,.356-.82,1.037,1.037,0,0,1,.756-.3A1.087,1.087,0,0,1,3.92,31.709a.863.863,0,0,0,1.061.845l4.551-1.067a1.21,1.21,0,0,0,.917-1.012,19.121,19.121,0,0,1,2.4-7.037,1.206,1.206,0,0,0-.125-1.381l-2.17-2.549a.864.864,0,0,0-1.346.039l-.188.249a.844.844,0,0,1-1.215.138.879.879,0,0,1-.1-1.194L9.15,16.828a.843.843,0,0,1,1.385.96.864.864,0,0,0,.386,1.256l3.035,1.313a1.2,1.2,0,0,0,1.367-.294,19.373,19.373,0,0,1,4.761-3.8,1.211,1.211,0,0,0,.6-1.225l-.7-4.652a.864.864,0,0,0-1.164-.678l-.662.255a.926.926,0,0,1-1.213-.575.963.963,0,0,1,.595-1.172l3.382-1.3a.927.927,0,0,1,1.213.575.964.964,0,0,1-.595,1.172l-.091.035a.863.863,0,0,0-.4,1.3l2.662,3.838a1.21,1.21,0,0,0,1.275.482A19.417,19.417,0,0,1,29.6,13.76h0a1.208,1.208,0,0,0,1.136-.8l.881-2.467a.864.864,0,0,0-.555-1.115,1.4,1.4,0,0,1-.971-1.5,1.36,1.36,0,0,1,.525-.911,1.487,1.487,0,0,1,1.094-.307l1.211.152a1.437,1.437,0,0,1,1.274,1.547,1.391,1.391,0,0,1-1.039,1.2.863.863,0,0,0-.639.934l.306,2.673a1.2,1.2,0,0,0,.938,1.038,19.18,19.18,0,0,1,5.492,2.134,1.21,1.21,0,0,0,1.361-.106l3.653-2.965a.863.863,0,0,0-.007-1.347l-.556-.441a.926.926,0,0,1-.12-1.337.963.963,0,0,1,1.312-.083l2.838,2.253a.926.926,0,0,1,.12,1.337.964.964,0,0,1-1.312.083l-.077-.061a.863.863,0,0,0-1.321.315L43.188,18.24a1.211,1.211,0,0,0,.233,1.344c.123.126.244.256.388.412a.863.863,0,1,0,1.27-1.17l-.174-.188,1.421-3.085a2.648,2.648,0,0,0,2.481-4.588L45.97,8.714a2.675,2.675,0,0,0-3.686.3A2.632,2.632,0,0,0,41.638,11a2.667,2.667,0,0,0,.726,1.594l-2.559,2.077A20.9,20.9,0,0,0,34.5,12.608l-.19-1.656A3.125,3.125,0,0,0,33.137,5.1l-1.211-.152a3.228,3.228,0,0,0-2.373.66,3.073,3.073,0,0,0-1.176,2.067,3.127,3.127,0,0,0,1.356,2.96l-.5,1.4a21.147,21.147,0,0,0-4.309.518L22.992,9.769A2.648,2.648,0,0,0,20.3,5.3L16.918,6.6A2.675,2.675,0,0,0,15.3,9.93,2.632,2.632,0,0,0,16.688,11.5a2.667,2.667,0,0,0,1.742.184l.49,3.26A21.086,21.086,0,0,0,14.3,18.624l-1.949-.843a2.585,2.585,0,0,0-.978-2.494,2.57,2.57,0,0,0-3.6.5L6.327,17.7A2.591,2.591,0,0,0,6.7,21.26a2.549,2.549,0,0,0,1.94.58,2.58,2.58,0,0,0,1.224-.479L11.173,22.9a20.821,20.821,0,0,0-2.384,6.991l-3.341.783A2.826,2.826,0,0,0,2.914,28.9a2.759,2.759,0,0,0-2,.787A2.9,2.9,0,0,0,.03,31.729L0,35.059a2.791,2.791,0,0,0,2.791,2.816A2.837,2.837,0,0,0,5.563,35.6Z" transform="translate(0 0)" fill="#fff"/>
      <path id="Path_42" data-name="Path 42" d="M151.819,141.38a.863.863,0,1,0-.809-1.526c-2.063,1.094-4.415.8-5.591-.688a3.715,3.715,0,0,1-.639-3.124,5.944,5.944,0,0,1,5.735-4.521,3.715,3.715,0,0,1,2.888,1.351,4.174,4.174,0,0,1-.032,4.781.863.863,0,0,0,1.472.9,5.873,5.873,0,0,0-.084-6.753,5.41,5.41,0,0,0-4.2-2.008,7.667,7.667,0,0,0-7.474,5.891,5.411,5.411,0,0,0,.973,4.548,5.507,5.507,0,0,0,4.4,2A7.2,7.2,0,0,0,151.819,141.38Z" transform="translate(-126.497 -110.492)" fill="#fff"/>
      <path id="Path_43" data-name="Path 43" d="M308.4,138.228a3.747,3.747,0,1,0-3.713,3.246A3.508,3.508,0,0,0,308.4,138.228Zm-5.7,0a2.058,2.058,0,1,1,1.987,1.52A1.8,1.8,0,0,1,302.7,138.228Z" transform="translate(-266.328 -115.083)" fill="#fff"/>
      <path id="Path_44" data-name="Path 44" d="M217.293,261.5a3.979,3.979,0,1,0-3.979,3.979A3.983,3.983,0,0,0,217.293,261.5Zm-6.23,0a2.252,2.252,0,1,1,2.252,2.252A2.254,2.254,0,0,1,211.063,261.5Z" transform="translate(-185.237 -223.517)" fill="#fff"/>
      <path id="Path_45" data-name="Path 45" d="M328.668,254.2a3.094,3.094,0,1,0-3.094,3.094A3.1,3.1,0,0,0,328.668,254.2Zm-4.461,0a1.367,1.367,0,1,1,1.367,1.367A1.369,1.369,0,0,1,324.207,254.2Z" transform="translate(-285.355 -217.842)" fill="#fff"/>
      <path id="Path_46" data-name="Path 46" d="M254.5,352.261a3.032,3.032,0,1,0-3.032-3.032A3.035,3.035,0,0,0,254.5,352.261Zm0-4.337a1.305,1.305,0,1,1-1.305,1.305A1.306,1.306,0,0,1,254.5,347.924Z" transform="translate(-222.516 -301.983)" fill="#fff"/>
      <path id="Path_47" data-name="Path 47" d="M135.94,306.6a3.122,3.122,0,1,0-3.122-3.122A3.126,3.126,0,0,0,135.94,306.6Zm0-4.518a1.4,1.4,0,1,1-1.4,1.4A1.4,1.4,0,0,1,135.94,302.081Z" transform="translate(-117.528 -261.417)" fill="#fff"/>
      <path id="Path_48" data-name="Path 48" d="M293.523,226.976a.863.863,0,0,0-.863-.863H291.9a.863.863,0,1,0,0,1.727h.763A.863.863,0,0,0,293.523,226.976Z" transform="translate(-257.529 -195.723)" fill="#fff"/>
      <path id="Path_49" data-name="Path 49" d="M203.388,358.94h.784a.863.863,0,1,0,0-1.727h-.784a.863.863,0,1,0,0,1.727Z" transform="translate(-179.21 -311.731)" fill="#fff"/>
      <path id="Path_50" data-name="Path 50" d="M134.437,249.718a.863.863,0,0,0,0-1.727h-.755a.863.863,0,1,0,0,1.727Z" transform="translate(-117.528 -215.082)" fill="#fff"/>
      <path id="Path_51" data-name="Path 51" d="M265.37,118.5a.863.863,0,1,0,0-1.727h-1.051a.863.863,0,1,0,0,1.727Z" transform="translate(-233.126 -98.971)" fill="#fff"/>
      <path id="Path_52" data-name="Path 52" d="M323.342,332.8a.863.863,0,0,0,0,1.727H324.5a.863.863,0,0,0,0-1.727Z" transform="translate(-285.355 -290.125)" fill="#fff"/>
    </g>
  </g>
</svg>
