<svg xmlns="http://www.w3.org/2000/svg" width="98" height="98" viewBox="0 0 98 98">
  <g id="Group_4303" data-name="Group 4303" transform="translate(-678 -716)">
    <rect id="Rectangle_15" data-name="Rectangle 15" width="98" height="98" rx="49" transform="translate(678 716)" fill="#15b186"/>
    <path id="Shape" d="M40.167,46H5.848A5.853,5.853,0,0,1,0,40.154V9.961A5.853,5.853,0,0,1,5.848,4.115H11.4V1.062A1.043,1.043,0,0,1,12.333,0h.112a1.046,1.046,0,0,1,1.047,1.062V4.115H32.344V1.062A1.046,1.046,0,0,1,33.373,0h.015a1.046,1.046,0,0,1,1.047,1.062V4.115h5.732A5.845,5.845,0,0,1,46,9.961V16.2a1.044,1.044,0,0,1,0,.114.354.354,0,0,1,0,.066V40.154A5.845,5.845,0,0,1,40.167,46ZM2.091,17.359V40.154a3.76,3.76,0,0,0,3.757,3.755H40.167a3.752,3.752,0,0,0,3.741-3.755V17.359ZM5.848,6.206A3.76,3.76,0,0,0,2.091,9.961v5.308H43.907V9.961a3.752,3.752,0,0,0-3.741-3.755H34.435V9.259a1.045,1.045,0,1,1-2.091,0V6.206H13.492V9.259a1.045,1.045,0,1,1-2.091,0V6.206Z" transform="translate(703.5 742)" fill="#fff" stroke="#fff" stroke-miterlimit="10" stroke-width="1"/>
  </g>
</svg>
