<svg id="Group_79" data-name="Group 79" xmlns="http://www.w3.org/2000/svg" width="17.713" height="19.625" viewBox="0 0 17.713 19.625">
  <path id="Icon_material-notifications-none" data-name="Icon material-notifications-none" d="M14.051,23.375a2.019,2.019,0,0,0,2.013-2.013H12.039A2.019,2.019,0,0,0,14.051,23.375Zm6.039-6.039V12.3c0-3.09-1.64-5.676-4.529-6.361V5.26a1.51,1.51,0,0,0-3.019,0v.684C9.663,6.628,8.013,9.2,8.013,12.3v5.032L6,19.35v1.006H22.1V19.35Zm-2.013,1.006H10.026V12.3c0-2.5,1.52-4.529,4.026-4.529s4.026,2.033,4.026,4.529Z" transform="translate(-6 -3.75)" fill="#fff"/>
  <circle id="Ellipse_5" data-name="Ellipse 5" cx="3.221" cy="3.221" r="3.221" transform="translate(11.272 0.453)" fill="#f1174b"/>
</svg>
