<svg xmlns="http://www.w3.org/2000/svg" width="21" height="21" viewBox="0 0 21 21">
  <path id="Shape" d="M17.464,20H2.542A2.545,2.545,0,0,1,0,17.458V4.331A2.545,2.545,0,0,1,2.542,1.789H4.957V.462A.454.454,0,0,1,5.362,0h.049a.455.455,0,0,1,.455.462V1.789h8.2V.462A.455.455,0,0,1,14.51,0h.007a.455.455,0,0,1,.455.462V1.789h2.492A2.541,2.541,0,0,1,20,4.331V7.043a.454.454,0,0,1,0,.049.154.154,0,0,1,0,.029V17.458A2.541,2.541,0,0,1,17.464,20ZM.909,7.547v9.911a1.635,1.635,0,0,0,1.633,1.633H17.464a1.631,1.631,0,0,0,1.626-1.633V7.547ZM2.542,2.7A1.635,1.635,0,0,0,.909,4.331V6.638H19.09V4.331A1.631,1.631,0,0,0,17.464,2.7H14.971V4.026a.455.455,0,1,1-.909,0V2.7h-8.2V4.026a.455.455,0,1,1-.909,0V2.7Z" transform="translate(0.5 0.5)" fill="#fff" stroke="#fff" stroke-miterlimit="10" stroke-width="1"/>
</svg>
