<svg xmlns="http://www.w3.org/2000/svg" width="21" height="20.067" viewBox="0 0 21 20.067">
  <g id="cardiogram" transform="translate(0.5 0.567)">
    <path id="Path_21" data-name="Path 21" d="M20,30.967c-.091-4.783-5.637-8.309-10-4.294C5.641,22.661.092,26.181,0,30.967a6.856,6.856,0,0,0,2.042,4.882l7.544,7.9a.566.566,0,0,0,.827,0l7.544-7.9A6.857,6.857,0,0,0,20,30.967ZM10,42.438,3.563,35.7H5.623a.581.581,0,0,0,.5-.3l.45-.789,1.679,2.777a.573.573,0,0,0,1.024-.067L11.6,32.173l1.639,3.2a.583.583,0,0,0,.516.324h2.685Zm7.571-7.971H14.1l-2.023-3.952a.574.574,0,0,0-1.046.028L8.674,35.784,7.055,33.108a.571.571,0,0,0-1,.014l-.767,1.345H2.43a5.412,5.412,0,0,1-1.256-3.475c.073-3.846,4.732-6.911,8.412-3.038a.566.566,0,0,0,.829,0C15.114,23.008,21.574,29.4,17.571,34.467Z" transform="translate(0 -24.925)" fill="#fff" stroke="#fff" stroke-width="1"/>
  </g>
</svg>
