<svg xmlns="http://www.w3.org/2000/svg" width="28.595" height="28.595" viewBox="0 0 28.595 28.595">
  <g id="dashboard" transform="translate(1 1)">
    <path id="Path_2" data-name="Path 2" d="M10.25,0H1.939A1.941,1.941,0,0,0,0,1.939V6.926A1.941,1.941,0,0,0,1.939,8.865H10.25A1.941,1.941,0,0,0,12.19,6.926V1.939A1.941,1.941,0,0,0,10.25,0Zm0,0" fill="none" stroke="#fff" stroke-width="2"/>
    <path id="Path_3" data-name="Path 3" d="M10.25,213.332H1.939A1.941,1.941,0,0,0,0,215.271v11.635a1.941,1.941,0,0,0,1.939,1.939H10.25a1.941,1.941,0,0,0,1.939-1.939V215.271A1.941,1.941,0,0,0,10.25,213.332Zm0,0" transform="translate(0 -202.251)" fill="none" stroke="#fff" stroke-width="2"/>
    <path id="Path_4" data-name="Path 4" d="M287.583,341.332h-8.311a1.941,1.941,0,0,0-1.939,1.939v4.987a1.941,1.941,0,0,0,1.939,1.939h8.311a1.941,1.941,0,0,0,1.939-1.939v-4.987A1.941,1.941,0,0,0,287.583,341.332Zm0,0" transform="translate(-262.926 -323.602)" fill="none" stroke="#fff" stroke-width="2"/>
    <path id="Path_5" data-name="Path 5" d="M287.583,0h-8.311a1.941,1.941,0,0,0-1.939,1.939V13.575a1.941,1.941,0,0,0,1.939,1.939h8.311a1.941,1.941,0,0,0,1.939-1.939V1.939A1.941,1.941,0,0,0,287.583,0Zm0,0" transform="translate(-262.926)" fill="none" stroke="#fff" stroke-width="2"/>
  </g>
</svg>
