<svg xmlns="http://www.w3.org/2000/svg" width="98" height="98" viewBox="0 0 98 98">
  <g id="Group_4302" data-name="Group 4302" transform="translate(-472 -716)">
    <rect id="Rectangle_15" data-name="Rectangle 15" width="98" height="98" rx="49" transform="translate(472 716)" fill="#15b186"/>
    <g id="ophthalmologist" transform="translate(494.771 735.276)">
      <g id="Group_3578" data-name="Group 3578" transform="translate(0 0.724)">
        <g id="Group_3577" data-name="Group 3577" transform="translate(0 0)">
          <path id="Path_25" data-name="Path 25" d="M39.006,292.336l-7.494-2.5v-1.114H29.771v1.635l-1.3,5.2-3.518-4.222H22.394l-3.518,4.222-1.3-5.2v-1.635H15.835v1.114l-7.494,2.5A9.561,9.561,0,0,0,1.92,299.85L0,311.369H47.347l-1.92-11.519A9.556,9.556,0,0,0,39.006,292.336ZM24.545,309.627V295.692H22.8v13.935H9.83l.775-7.752L8.872,301.7l-.793,7.926H2.057l1.582-9.492a7.824,7.824,0,0,1,5.254-6.148l5.2-1.733v7.915a3.484,3.484,0,1,0,1.742,0v-8.5l.254-.085,1.93,7.719,5.191-6.23h.926l5.192,6.23,1.93-7.719.254.085v6.963l-3.3,1.65a3.463,3.463,0,0,0-1.926,3.115v1a3.487,3.487,0,0,0,3.484,3.484h.871v-1.742h-.871a1.744,1.744,0,0,1-1.742-1.742v-1a1.732,1.732,0,0,1,.962-1.558l3.392-1.7,3.392,1.7a1.733,1.733,0,0,1,.962,1.558v1A1.744,1.744,0,0,1,35,306.143h-.871v1.742H35a3.453,3.453,0,0,0,2.262-.856l.26,2.6Zm-9.581-7.839a1.742,1.742,0,1,1-1.742,1.742A1.744,1.744,0,0,1,14.964,301.788Zm24.3,7.839-.793-7.926-.422.042a3.463,3.463,0,0,0-1.5-1.456l-3.3-1.65v-6.382l5.2,1.733a7.825,7.825,0,0,1,5.254,6.148l1.581,9.491Z" transform="translate(0 -257.369)" fill="#fff" stroke="#fff" stroke-width="0.2"/>
          <path id="Path_26" data-name="Path 26" d="M85.317,24.191a9.522,9.522,0,0,0,2.421,4.087l3.4,3.4a4.327,4.327,0,0,0,3.079,1.276H98.3a4.327,4.327,0,0,0,3.079-1.276l3.4-3.4a9.522,9.522,0,0,0,2.421-4.087,4.325,4.325,0,0,0,2.1-7.79h.027V13.789a13.065,13.065,0,0,0-26.129,0V16.4h.027a4.325,4.325,0,0,0,2.1,7.79ZM105.835,21.5a7.789,7.789,0,0,1-2.3,5.544l-3.4,3.4a2.627,2.627,0,0,1-1.847.766H94.213a2.629,2.629,0,0,1-1.847-.766l-3.4-3.4a7.787,7.787,0,0,1-2.3-5.543V17.272h6.441a11.206,11.206,0,0,0,5.753-1.583,11.211,11.211,0,0,0,5.754,1.583h1.215Zm3.484-1.617a2.608,2.608,0,0,1-1.783,2.465c.024-.28.041-.562.041-.847v-4.07A2.609,2.609,0,0,1,109.319,19.885Zm-24.387-6.1a11.323,11.323,0,0,1,22.645,0v1.83a4.351,4.351,0,0,0-.871-.088H104.62a9.479,9.479,0,0,1-5.27-1.6l-.483-.322-.483.322a9.474,9.474,0,0,1-5.269,1.6H85.8a4.351,4.351,0,0,0-.871.088Zm0,3.644V21.5c0,.285.017.567.041.847a2.6,2.6,0,0,1-.041-4.917Z" transform="translate(-72.581 -0.724)" fill="#fff" stroke="#fff" stroke-width="0.2"/>
        </g>
      </g>
    </g>
  </g>
</svg>
