<svg xmlns="http://www.w3.org/2000/svg" width="20.999" height="23.787" viewBox="0 0 20.999 23.787">
  <g id="documents" transform="translate(-30)">
    <path id="Path_27" data-name="Path 27" d="M50.3,10.546h-.743V3.484a.7.7,0,0,0-.2-.493L46.567.2a.7.7,0,0,0-.493-.2H32.137a.7.7,0,0,0-.7.7V7.759H30.7a.7.7,0,0,0-.7.7V21.7a2.093,2.093,0,0,0,2.091,2.091H48.909A2.093,2.093,0,0,0,51,21.7V11.243A.7.7,0,0,0,50.3,10.546Zm-7.015,0V3.484a.7.7,0,0,0-.2-.493l-1.6-1.6h3.2V4.228a.7.7,0,0,0,.7.7h2.788v5.621ZM39.8,1.682l1.848,1.848H39.8Zm8.12,1.848H46.075V1.682ZM32.834,1.394h5.575V4.228a.7.7,0,0,0,.7.7h2.787v5.621h-1.66l-1.2-2.4a.7.7,0,0,0-.623-.385H32.834ZM49.605,21.7a.7.7,0,0,1-.7.7H32.091a.7.7,0,0,1-.7-.7V9.152h6.584l1.2,2.4a.7.7,0,0,0,.623.385h9.8Z" transform="translate(0)" fill="#fff"/>
    <path id="Path_28" data-name="Path 28" d="M286.7,362.394h4.878a.7.7,0,1,0,0-1.394H286.7a.7.7,0,0,0,0,1.394Z" transform="translate(-244.107 -344.229)" fill="#fff"/>
    <path id="Path_29" data-name="Path 29" d="M286.7,422.394h4.878a.7.7,0,1,0,0-1.394H286.7a.7.7,0,0,0,0,1.394Z" transform="translate(-244.107 -401.441)" fill="#fff"/>
  </g>
</svg>
