<svg xmlns="http://www.w3.org/2000/svg" width="22.5" height="22.5" viewBox="0 0 22.5 22.5">
  <g id="download" transform="translate(0.25 0.25)">
    <g id="Group_3573" data-name="Group 3573" transform="translate(6.707)">
      <g id="Group_3572" data-name="Group 3572">
        <path id="Path_22" data-name="Path 22" d="M179.147,12.4a1.074,1.074,0,0,0-.961-.594H176.04V1.073a1.073,1.073,0,1,0-2.147,0V11.806h-2.147a1.073,1.073,0,0,0-.859,1.717l3.22,4.293c.014.018.035.025.05.042a1.048,1.048,0,0,0,.248.207,1.107,1.107,0,0,0,.111.074,1.007,1.007,0,0,0,.9,0,1.089,1.089,0,0,0,.109-.074,1.048,1.048,0,0,0,.248-.207c.014-.017.036-.024.05-.042l3.22-4.293A1.072,1.072,0,0,0,179.147,12.4Z" transform="translate(-170.674 0)" fill="#fff" stroke="#fff" stroke-width="0.5"/>
      </g>
    </g>
    <g id="Group_3575" data-name="Group 3575" transform="translate(0 12.34)">
      <g id="Group_3574" data-name="Group 3574">
        <path id="Path_23" data-name="Path 23" d="M21.083,320a1,1,0,0,0-.917,1.073v3.22a3.017,3.017,0,0,1-2.75,3.22H4.583a3.017,3.017,0,0,1-2.75-3.22v-3.22A1,1,0,0,0,.917,320,1,1,0,0,0,0,321.073v3.22c0,2.959,2.056,5.367,4.583,5.367H17.417c2.527,0,4.583-2.407,4.583-5.367v-3.22A1,1,0,0,0,21.083,320Z" transform="translate(0 -320)" fill="#fff" stroke="#fff" stroke-width="0.5"/>
      </g>
    </g>
  </g>
</svg>
