<svg xmlns="http://www.w3.org/2000/svg" width="98" height="98" viewBox="0 0 98 98">
  <g id="Group_4302" data-name="Group 4302" transform="translate(-1294 -716)">
    <rect id="Rectangle_15" data-name="Rectangle 15" width="98" height="98" rx="49" transform="translate(1294 716)" fill="#15b186"/>
    <g id="pharmacy" transform="translate(1315.715 738.715)">
      <path id="Path_53" data-name="Path 53" d="M53.661,16.371h-.91v-10a.91.91,0,0,0-.91-.91H36.38V.91a.91.91,0,0,0-.91-.91H19.1a.91.91,0,0,0-.91.91V5.457H2.729a.91.91,0,0,0-.91.91v10H.91a.91.91,0,0,0-.91.91v3.638a.91.91,0,0,0,.91.91h.91V53.661a.91.91,0,0,0,.91.91H51.842a.91.91,0,0,0,.91-.91V21.828h.91a.91.91,0,0,0,.91-.91V17.281A.91.91,0,0,0,53.661,16.371ZM36.38,7.276H50.932v9.1H36.38ZM20.009,1.819H34.561V16.371H20.009ZM3.638,7.276H18.19v9.1H3.638ZM44.566,52.751H32.742V45.475H44.566Zm0-9.1H32.742v-9.1H44.566Zm0-10.914H32.742V28.195H44.566Zm6.367,20.009H46.385V27.285a.91.91,0,0,0-.91-.91H31.833a.91.91,0,0,0-.91.91V52.751H3.638V21.828H50.932Zm1.819-32.742H1.819V18.19H52.751Zm0,0" fill="#fff"/>
      <path id="Path_54" data-name="Path 54" d="M72.91,252.009H89.281a.91.91,0,0,0,.91-.91v-4.548a.91.91,0,0,0-.91-.91h-.91V232.91a.91.91,0,0,0-.91-.91H74.729a.91.91,0,0,0-.91.91v12.733h-.91a.91.91,0,0,0-.91.91V251.1A.91.91,0,0,0,72.91,252.009Zm2.729-18.19H86.552v11.824H75.638Zm-1.819,13.643H88.371v2.729H73.819Zm0,0" transform="translate(-63.814 -205.624)" fill="#fff"/>
      <path id="Path_55" data-name="Path 55" d="M360.909,330.729a.91.91,0,0,0,.91-.91v-.91a.91.91,0,1,0-1.819,0v.91A.91.91,0,0,0,360.909,330.729Zm0,0" transform="translate(-319.072 -290.71)" fill="#fff"/>
      <path id="Path_56" data-name="Path 56" d="M202,34.729h-1.819V32.91a.91.91,0,0,0-.91-.91h-3.638a.91.91,0,0,0-.91.91v1.819H192.91a.91.91,0,0,0-.91.91v3.638a.91.91,0,0,0,.91.91h1.819V42a.91.91,0,0,0,.91.91h3.638a.91.91,0,0,0,.91-.91V40.186H202a.91.91,0,0,0,.91-.91V35.638A.91.91,0,0,0,202,34.729Zm-.909,3.638h-1.819a.91.91,0,0,0-.91.91V41.1h-1.819V39.276a.91.91,0,0,0-.91-.91h-1.819V36.548h1.819a.91.91,0,0,0,.91-.91V33.819h1.819v1.819a.91.91,0,0,0,.91.91H201.1Zm0,0" transform="translate(-170.172 -28.362)" fill="#fff"/>
      <path id="Path_57" data-name="Path 57" d="M121.466,268.368l2.729-2.729a.91.91,0,0,0-1.286-1.286l-2.729,2.729a.91.91,0,1,0,1.286,1.286Zm0,0" transform="translate(-106.27 -234.073)" fill="#fff"/>
      <path id="Path_58" data-name="Path 58" d="M132.727,280.354,128.18,284.9a.91.91,0,1,0,1.286,1.286l4.548-4.548a.91.91,0,0,0-1.286-1.286Zm0,0" transform="translate(-113.361 -248.255)" fill="#fff"/>
    </g>
  </g>
</svg>
