<svg xmlns="http://www.w3.org/2000/svg" width="20.459" height="20.296" viewBox="0 0 20.459 20.296">
  <g id="Logout" transform="translate(0.126 0.15)">
    <g id="logout-2" data-name="logout">
      <path id="Path" d="M14.233,5.181l.008-.008a.311.311,0,0,0,.033-.045s0-.008.008-.012.02-.033.029-.049a.014.014,0,0,1,0-.008c.008-.016.016-.033.024-.053,0,0,0,0,0-.008s.012-.037.02-.057c0,0,0-.008,0-.008a.286.286,0,0,0,.012-.057.037.037,0,0,1,0-.02c0-.016,0-.033.008-.049a.592.592,0,0,0,0-.139.2.2,0,0,0-.008-.049.037.037,0,0,0,0-.02c0-.02-.008-.037-.012-.057,0,0,0-.008,0-.008a.32.32,0,0,0-.02-.057s0,0,0-.008-.016-.037-.024-.053a.014.014,0,0,0,0-.008.3.3,0,0,0-.029-.049s0-.008-.008-.012a.427.427,0,0,0-.033-.045l-.008-.008a.58.58,0,0,0-.049-.053L10.147.205a.7.7,0,0,0-.992.992L12,4.038H.7a.7.7,0,1,0,0,1.4H12L9.18,8.258a.7.7,0,1,0,.988.992L14.18,5.238C14.2,5.213,14.216,5.2,14.233,5.181Z" transform="translate(5.788 5.26)" fill="#fff" stroke="#fff" stroke-miterlimit="10" stroke-width="0.3"/>
      <path id="Path-2" data-name="Path" d="M3.8,1.4H9.024a.7.7,0,1,0,0-1.4H3.8A3.806,3.806,0,0,0,0,3.8V16.2A3.806,3.806,0,0,0,3.8,20H8.939a.7.7,0,1,0,0-1.4H3.8a2.4,2.4,0,0,1-2.4-2.4V3.8A2.4,2.4,0,0,1,3.8,1.4Z" transform="translate(0.024)" fill="#fff" stroke="#fff" stroke-miterlimit="10" stroke-width="0.3"/>
    </g>
  </g>
</svg>
