<svg xmlns="http://www.w3.org/2000/svg" width="98" height="98" viewBox="0 0 98 98">
  <g id="Group_4304" data-name="Group 4304" transform="translate(-883 -716)">
    <rect id="Rectangle_15" data-name="Rectangle 15" width="98" height="98" rx="49" transform="translate(883 716)" fill="#15b186"/>
    <g id="drugs" transform="translate(896.444 715.191)">
      <path id="Path_32" data-name="Path 32" d="M302.779,255.573a4.87,4.87,0,0,0-8.752-4.273l-4.394,9a4.87,4.87,0,1,0,8.752,4.272Zm-7.587-3.7A3.573,3.573,0,1,1,301.614,255l-1.912,3.918-6.423-3.135Zm2.028,12.136a3.573,3.573,0,0,1-6.422-3.135l1.913-3.917,6.422,3.135Z" transform="translate(-248.521 -198.07)" fill="#fff"/>
      <path id="Path_33" data-name="Path 33" d="M342.271,267.414a3.61,3.61,0,0,0-2.084,1.842l-.806,1.65a.648.648,0,0,0,1.165.569l.806-1.65a2.323,2.323,0,0,1,1.34-1.185.648.648,0,1,0-.421-1.226Z" transform="translate(-293.278 -214.85)" fill="#fff"/>
      <path id="Path_34" data-name="Path 34" d="M382.032,306.345a4.87,4.87,0,0,0-6.512,2.24l-4.394,9a4.87,4.87,0,0,0,8.752,4.273l4.394-9A4.87,4.87,0,0,0,382.032,306.345Zm-3.319,14.944a3.573,3.573,0,1,1-6.422-3.135l1.912-3.918,6.423,3.135Zm4.394-9-1.912,3.918-6.423-3.135,1.912-3.918a3.573,3.573,0,0,1,6.422,3.135Z" transform="translate(-321.21 -249.166)" fill="#fff"/>
      <path id="Path_35" data-name="Path 35" d="M423.706,324.694a3.609,3.609,0,0,0-2.084,1.842l-.806,1.65a.648.648,0,1,0,1.164.569l.806-1.65a2.322,2.322,0,0,1,1.34-1.185.648.648,0,0,0-.421-1.226Z" transform="translate(-365.909 -265.942)" fill="#fff"/>
      <path id="Path_36" data-name="Path 36" d="M33.68,38.169a2.683,2.683,0,0,0,2.386-2.663V29.189a2.683,2.683,0,0,0-2.68-2.68H14.947a2.683,2.683,0,0,0-2.679,2.68v6.317a2.683,2.683,0,0,0,2.679,2.68h.381a12.207,12.207,0,0,0-1.643,1.23,8.548,8.548,0,0,0-3.165,5.86V72.493a3.838,3.838,0,0,0,3.488,3.6H34.763A2.814,2.814,0,0,0,37,74.877a4.031,4.031,0,0,0,.816-2.384v-27.2c0-2.763-1.922-5.555-4.135-7.124ZM32.462,27.805h.925a1.385,1.385,0,0,1,1.384,1.383v6.317a1.385,1.385,0,0,1-1.384,1.383h-.925Zm-3.823,0h2.527v9.083H28.639Zm-3.932,0h2.636v9.083H24.706Zm-3.714,0H23.41v9.083H20.992Zm-3.932,0H19.7v9.083H17.06Zm-2.113,9.083a1.385,1.385,0,0,1-1.383-1.383V29.189a1.385,1.385,0,0,1,1.383-1.383h.816v9.083ZM36.518,66.031h-18V49.412h18Zm0-17.915H17.867a.648.648,0,0,0-.648.648V66.679a.648.648,0,0,0,.648.648H36.518v5.166c0,1.042-.783,2.3-1.755,2.3H14.008a2.588,2.588,0,0,1-2.192-2.3V45.3a7.284,7.284,0,0,1,2.731-4.918,7.937,7.937,0,0,1,4.5-2.2h11.25c2.286,0,6.224,3.512,6.224,7.108Z" transform="translate(0 0)" fill="#fff"/>
      <path id="Path_37" data-name="Path 37" d="M111.129,267.5h3.284v3.284a.867.867,0,0,0,.867.867h2.731a.868.868,0,0,0,.867-.867V267.5h3.284a.868.868,0,0,0,.867-.867v-2.731a.868.868,0,0,0-.867-.867h-3.284v-3.284a.868.868,0,0,0-.867-.867H115.28a.868.868,0,0,0-.867.867v3.284H111.13a.868.868,0,0,0-.867.867v2.731A.868.868,0,0,0,111.129,267.5Zm.43-3.168h3.284a.868.868,0,0,0,.867-.867v-3.284h1.872v3.284a.867.867,0,0,0,.867.867h3.284v1.872h-3.284a.867.867,0,0,0-.867.867v3.284H115.71v-3.284a.868.868,0,0,0-.867-.867h-3.284Z" transform="translate(-88.968 -207.277)" fill="#fff"/>
      <path id="Path_38" data-name="Path 38" d="M41.253,250.063a.648.648,0,0,0-.648.648V266.3a.648.648,0,1,0,1.3,0V250.711A.648.648,0,0,0,41.253,250.063Z" transform="translate(-26.835 -199.405)" fill="#fff"/>
      <path id="Path_39" data-name="Path 39" d="M40.648,227.723a.648.648,0,0,0,.648-.648v-.463a.648.648,0,0,0-1.3,0v.463A.648.648,0,0,0,40.648,227.723Z" transform="translate(-26.295 -177.908)" fill="#fff"/>
    </g>
  </g>
</svg>
