<svg xmlns="http://www.w3.org/2000/svg" width="22.998" height="19.922" viewBox="0 0 22.998 19.922">
  <g id="puzzle-pieces" transform="translate(0.499 -35.509)">
    <path id="Path_30" data-name="Path 30" d="M16.15,36.009A6.675,6.675,0,0,0,11,38.525a6.671,6.671,0,0,0-5.149-2.516A5.885,5.885,0,0,0,0,41.725c.02,5.107,6.5,10.243,10.754,13.111a.434.434,0,0,0,.486,0c1.354-.913,2.6-1.83,3.71-2.727a.43.43,0,0,0-.541-.668c-.9.732-1.9,1.478-2.98,2.225V51.433a2.148,2.148,0,1,0,0-4.21V45.461h2.378a.43.43,0,0,0,.372-.645,1.289,1.289,0,1,1,2.234,0,.429.429,0,0,0,.372.644h3.163a18.156,18.156,0,0,1-2.707,3.43.43.43,0,1,0,.614.6c2.023-2.066,4.151-4.912,4.143-7.813a5.871,5.871,0,0,0-5.848-5.67Zm-10.3.859A5.664,5.664,0,0,1,9.907,38.6a2.148,2.148,0,1,0,.663,4.24V44.6H8.192a.43.43,0,0,0-.372.645,1.289,1.289,0,1,1-2.234,0,.43.43,0,0,0-.372-.645H1.593a6.839,6.839,0,0,1-.733-2.88A5.026,5.026,0,0,1,5.851,36.868Zm4.934,11.343a.43.43,0,0,0,.43,0,1.289,1.289,0,1,1,0,2.234.43.43,0,0,0-.645.372v2.853c-4.152-2.878-7.013-5.634-8.521-8.208H4.6a2.148,2.148,0,1,0,4.21,0H10.57v2.378a.43.43,0,0,0,.215.372Zm9.62-3.61h-3a2.148,2.148,0,1,0-4.21,0H11.429V42.224a.43.43,0,0,0-.645-.372,1.289,1.289,0,1,1,0-2.234.432.432,0,0,0,.581-.146,5.869,5.869,0,0,1,4.784-2.6,5,5,0,0,1,4.989,4.813A6.83,6.83,0,0,1,20.405,44.6Z" transform="translate(0)" fill="#fff" stroke="#fff" stroke-width="1"/>
    <circle id="Ellipse_12" data-name="Ellipse 12" cx="0.5" cy="0.5" r="0.5" transform="translate(15.999 50.469)" fill="#fff" stroke="#fff" stroke-width="1"/>
  </g>
</svg>
