<svg xmlns="http://www.w3.org/2000/svg" width="19.013" height="19.014" viewBox="0 0 19.013 19.014">
  <path id="Shape" d="M17.366,17.714a.348.348,0,0,1-.251-.1l-5.173-5.18a7.477,7.477,0,0,1-4.649,1.616A7.17,7.17,0,0,1,0,7.022,7.17,7.17,0,0,1,7.293,0a7.17,7.17,0,0,1,7.295,7.022,6.847,6.847,0,0,1-2.133,4.957l5.162,5.167a.328.328,0,0,1-.01.474A.355.355,0,0,1,17.366,17.714ZM7.293.668a6.487,6.487,0,0,0-6.6,6.354,6.488,6.488,0,0,0,6.6,6.355,6.488,6.488,0,0,0,6.6-6.355A6.488,6.488,0,0,0,7.293.668Z" transform="translate(0.65 0.65)" fill="none" stroke="#fff" stroke-miterlimit="10" stroke-width="1.3"/>
</svg>
