<svg xmlns="http://www.w3.org/2000/svg" width="17.893" height="17.893" viewBox="0 0 17.893 17.893">
  <g id="Group_4187" data-name="Group 4187" transform="translate(-100.165 -904.797)">
    <path id="Combined_Shape" data-name="Combined Shape" d="M2,6A4.024,4.024,0,0,1,.5,5.709a.787.787,0,0,1-.448-1L.639,3A1.84,1.84,0,0,1,.22,1.829,1.815,1.815,0,0,1,1.86.005C1.906,0,1.953,0,2,0A1.784,1.784,0,0,1,3.757,1.546,1.842,1.842,0,0,1,3.358,3l.594,1.71a.787.787,0,0,1-.446,1A4.024,4.024,0,0,1,2,6ZM1.485,2.485a.5.5,0,0,1,.152.543L1,4.859a3.1,3.1,0,0,0,2,0L2.363,3.029a.5.5,0,0,1,.152-.544.868.868,0,0,0,.269-.947.823.823,0,0,0-1.568,0,.865.865,0,0,0,.269.947Z" transform="translate(106 914)" fill="none"/>
    <path id="path" d="M18.518,18.689a2.522,2.522,0,0,1-4.771,0H3.352a.852.852,0,0,1,0-1.7H13.747a2.522,2.522,0,0,1,4.771,0h1.022a.852.852,0,0,1,0,1.7Zm-3.238-.852a.852.852,0,1,0,.852-.852.8.8,0,0,0-.852.852ZM13.832,5.908a2.522,2.522,0,0,1-4.771,0H3.352A.8.8,0,0,1,2.5,5.056.8.8,0,0,1,3.352,4.2H9.061a2.522,2.522,0,0,1,4.771,0h5.709a.8.8,0,0,1,.852.852.8.8,0,0,1-.852.852Zm-3.238-.852a.852.852,0,1,0,1.7,0,.852.852,0,1,0-1.7,0ZM19.541,12.3H9.146a2.522,2.522,0,0,1-4.771,0H3.352a.852.852,0,0,1,0-1.7H4.374a2.522,2.522,0,0,1,4.771,0H19.541a.852.852,0,0,1,0,1.7ZM5.908,11.446a.8.8,0,0,0,.852.852.852.852,0,0,0,0-1.7.8.8,0,0,0-.852.852Z" transform="translate(97.665 902.297)" fill="#fff"/>
  </g>
</svg>
