<svg id="user_1_" data-name="user (1)" xmlns="http://www.w3.org/2000/svg" width="20" height="20" viewBox="0 0 20 20">
  <g id="Group_3576" data-name="Group 3576" transform="translate(0)">
    <path id="Path_24" data-name="Path 24" d="M57.645,9.455a4.413,4.413,0,0,0,1.022-2.788V5c0-2.757-2.691-5-6-5s-6,2.242-6,5V6.667a4.413,4.413,0,0,0,1.022,2.788,8.207,8.207,0,0,0-5.022,7.212V17.5a2.788,2.788,0,0,0,3,2.5h14a2.788,2.788,0,0,0,3-2.5v-.833A8.208,8.208,0,0,0,57.645,9.455ZM48.667,5c0-1.838,1.794-3.333,4-3.333s4,1.495,4,3.333V6.667c0,1.838-1.794,3.333-4,3.333s-4-1.495-4-3.333Zm12,12.5a.93.93,0,0,1-1,.833h-14a.93.93,0,0,1-1-.833v-.833a6.679,6.679,0,0,1,4.456-5.974,6.933,6.933,0,0,0,7.088,0,6.679,6.679,0,0,1,4.456,5.974V17.5Z" transform="translate(-42.667)" fill="#fff"/>
  </g>
</svg>
