<svg xmlns="http://www.w3.org/2000/svg" width="16.862" height="19.985" viewBox="0 0 16.862 19.985">
  <g id="verified" transform="translate(-40 0)">
    <path id="Path_31" data-name="Path 31" d="M56.381,3.236,48.731.06a.781.781,0,0,0-.6,0l-7.65,3.176A.781.781,0,0,0,40,3.957V7.819a13.073,13.073,0,0,0,8.136,12.109.781.781,0,0,0,.59,0A13.074,13.074,0,0,0,56.862,7.819V3.957A.781.781,0,0,0,56.381,3.236ZM55.3,7.819a11.515,11.515,0,0,1-6.87,10.538,11.515,11.515,0,0,1-6.87-10.538V4.478l6.87-2.852L55.3,4.478ZM47.568,10.45l3.355-3.355a.781.781,0,1,1,1.1,1.1L48.12,12.106a.781.781,0,0,1-1.1,0L44.835,9.924a.781.781,0,1,1,1.1-1.1Z" transform="translate(0 0)" fill="#fff"/>
  </g>
</svg>
